<mxfile host="app.diagrams.net" modified="2021-06-09T11:58:18.141Z" agent="5.0 (X11)" etag="mi_UpT8wkYKiAUxuJbMl" version="14.7.6" type="github">
  <diagram id="-MRnqny8t4Sf_50xfgXc" name="Page-1">
    <mxGraphModel dx="1750" dy="441" grid="1" gridSize="10" guides="1" tooltips="1" connect="1" arrows="1" fold="1" page="1" pageScale="1" pageWidth="850" pageHeight="1100" math="0" shadow="0">
      <root>
        <mxCell id="0" />
        <mxCell id="1" parent="0" />
        <mxCell id="o7lLUa4CT0-H-7rNshDC-15" style="edgeStyle=none;rounded=0;orthogonalLoop=1;jettySize=auto;html=1;entryX=0;entryY=0.5;entryDx=0;entryDy=0;endArrow=none;endFill=0;exitX=1;exitY=0.25;exitDx=0;exitDy=0;" edge="1" parent="1" source="o7lLUa4CT0-H-7rNshDC-3" target="o7lLUa4CT0-H-7rNshDC-9">
          <mxGeometry relative="1" as="geometry">
            <mxPoint x="490" y="320" as="sourcePoint" />
          </mxGeometry>
        </mxCell>
        <mxCell id="o7lLUa4CT0-H-7rNshDC-1" value="&lt;div&gt;Moss/Autumn Ang&lt;br&gt;&lt;/div&gt;&lt;div&gt;Ian&lt;br&gt;&lt;/div&gt;" style="rounded=0;whiteSpace=wrap;html=1;" vertex="1" parent="1">
          <mxGeometry x="300" y="315" width="120" height="60" as="geometry" />
        </mxCell>
        <mxCell id="o7lLUa4CT0-H-7rNshDC-2" value="&lt;div&gt;Faux/Punjabi Ranjha&lt;/div&gt;&lt;div&gt;Lachlan&lt;br&gt;&lt;/div&gt;" style="rounded=0;whiteSpace=wrap;html=1;" vertex="1" parent="1">
          <mxGeometry x="300" y="190" width="120" height="60" as="geometry" />
        </mxCell>
        <mxCell id="o7lLUa4CT0-H-7rNshDC-12" style="edgeStyle=none;rounded=0;orthogonalLoop=1;jettySize=auto;html=1;exitX=1;exitY=0.75;exitDx=0;exitDy=0;entryX=0;entryY=0.75;entryDx=0;entryDy=0;endArrow=none;endFill=0;" edge="1" parent="1" source="o7lLUa4CT0-H-7rNshDC-3" target="o7lLUa4CT0-H-7rNshDC-10">
          <mxGeometry relative="1" as="geometry" />
        </mxCell>
        <mxCell id="o7lLUa4CT0-H-7rNshDC-22" value="Former Mentor/Nemesis" style="edgeLabel;html=1;align=center;verticalAlign=middle;resizable=0;points=[];" vertex="1" connectable="0" parent="o7lLUa4CT0-H-7rNshDC-12">
          <mxGeometry x="-0.3098" y="1" relative="1" as="geometry">
            <mxPoint x="27" y="7" as="offset" />
          </mxGeometry>
        </mxCell>
        <mxCell id="o7lLUa4CT0-H-7rNshDC-54" style="edgeStyle=none;rounded=0;orthogonalLoop=1;jettySize=auto;html=1;exitX=1;exitY=0.5;exitDx=0;exitDy=0;endArrow=none;endFill=0;strokeColor=#009900;strokeWidth=3;" edge="1" parent="1" source="o7lLUa4CT0-H-7rNshDC-3">
          <mxGeometry relative="1" as="geometry">
            <mxPoint x="580" y="464.83333333333337" as="targetPoint" />
          </mxGeometry>
        </mxCell>
        <mxCell id="o7lLUa4CT0-H-7rNshDC-55" value="+Saviour: Demand Protection for innocents" style="edgeLabel;html=1;align=center;verticalAlign=middle;resizable=0;points=[];" vertex="1" connectable="0" parent="o7lLUa4CT0-H-7rNshDC-54">
          <mxGeometry x="-0.375" y="2" relative="1" as="geometry">
            <mxPoint x="80" y="-3" as="offset" />
          </mxGeometry>
        </mxCell>
        <mxCell id="o7lLUa4CT0-H-7rNshDC-3" value="&lt;div&gt;Dust/Charlie Clark&lt;br&gt;&lt;/div&gt;&lt;div&gt;Mel&lt;br&gt;&lt;/div&gt;" style="rounded=0;whiteSpace=wrap;html=1;" vertex="1" parent="1">
          <mxGeometry x="300" y="435" width="120" height="60" as="geometry" />
        </mxCell>
        <mxCell id="o7lLUa4CT0-H-7rNshDC-16" style="edgeStyle=none;rounded=0;orthogonalLoop=1;jettySize=auto;html=1;exitX=1;exitY=0.75;exitDx=0;exitDy=0;entryX=0;entryY=0.75;entryDx=0;entryDy=0;endArrow=none;endFill=0;" edge="1" parent="1" source="o7lLUa4CT0-H-7rNshDC-4" target="o7lLUa4CT0-H-7rNshDC-1">
          <mxGeometry relative="1" as="geometry" />
        </mxCell>
        <mxCell id="o7lLUa4CT0-H-7rNshDC-24" value="Parapalegic Army Vet" style="edgeLabel;html=1;align=center;verticalAlign=middle;resizable=0;points=[];" vertex="1" connectable="0" parent="o7lLUa4CT0-H-7rNshDC-16">
          <mxGeometry x="-0.3994" y="-1" relative="1" as="geometry">
            <mxPoint x="22" y="-2" as="offset" />
          </mxGeometry>
        </mxCell>
        <mxCell id="o7lLUa4CT0-H-7rNshDC-29" style="edgeStyle=none;rounded=0;orthogonalLoop=1;jettySize=auto;html=1;exitX=1;exitY=0.25;exitDx=0;exitDy=0;entryX=0;entryY=0.25;entryDx=0;entryDy=0;endArrow=none;endFill=0;strokeColor=#009900;strokeWidth=3;" edge="1" parent="1" source="o7lLUa4CT0-H-7rNshDC-4" target="o7lLUa4CT0-H-7rNshDC-1">
          <mxGeometry relative="1" as="geometry" />
        </mxCell>
        <mxCell id="o7lLUa4CT0-H-7rNshDC-32" value="&lt;font style=&quot;font-size: 12px&quot;&gt;+Savior (Place responsibility)&lt;br&gt;&lt;/font&gt;" style="edgeLabel;html=1;align=center;verticalAlign=middle;resizable=0;points=[];" vertex="1" connectable="0" parent="o7lLUa4CT0-H-7rNshDC-29">
          <mxGeometry x="-0.2118" y="-1" relative="1" as="geometry">
            <mxPoint x="13" y="-1" as="offset" />
          </mxGeometry>
        </mxCell>
        <mxCell id="o7lLUa4CT0-H-7rNshDC-4" value="&lt;div&gt;Sara Anderson&lt;/div&gt;&lt;div&gt;&lt;b&gt;Drive: &lt;/b&gt;Help others work through pain&lt;br&gt;&lt;/div&gt;" style="rounded=0;whiteSpace=wrap;html=1;" vertex="1" parent="1">
          <mxGeometry x="-10" y="315" width="120" height="60" as="geometry" />
        </mxCell>
        <mxCell id="o7lLUa4CT0-H-7rNshDC-14" style="edgeStyle=none;rounded=0;orthogonalLoop=1;jettySize=auto;html=1;exitX=1;exitY=0.5;exitDx=0;exitDy=0;entryX=0;entryY=0.5;entryDx=0;entryDy=0;endArrow=none;endFill=0;" edge="1" parent="1" source="o7lLUa4CT0-H-7rNshDC-5" target="o7lLUa4CT0-H-7rNshDC-2">
          <mxGeometry relative="1" as="geometry" />
        </mxCell>
        <mxCell id="o7lLUa4CT0-H-7rNshDC-23" value="Parents" style="edgeLabel;html=1;align=center;verticalAlign=middle;resizable=0;points=[];" vertex="1" connectable="0" parent="o7lLUa4CT0-H-7rNshDC-14">
          <mxGeometry x="-0.1131" y="-4" relative="1" as="geometry">
            <mxPoint x="15" as="offset" />
          </mxGeometry>
        </mxCell>
        <mxCell id="o7lLUa4CT0-H-7rNshDC-45" style="edgeStyle=none;rounded=0;orthogonalLoop=1;jettySize=auto;html=1;exitX=1.021;exitY=0.867;exitDx=0;exitDy=0;entryX=0;entryY=0;entryDx=0;entryDy=0;endArrow=none;endFill=0;strokeColor=#009900;strokeWidth=3;exitPerimeter=0;" edge="1" parent="1" source="o7lLUa4CT0-H-7rNshDC-5" target="o7lLUa4CT0-H-7rNshDC-1">
          <mxGeometry relative="1" as="geometry" />
        </mxCell>
        <mxCell id="o7lLUa4CT0-H-7rNshDC-46" value="+" style="edgeLabel;html=1;align=center;verticalAlign=middle;resizable=0;points=[];" vertex="1" connectable="0" parent="o7lLUa4CT0-H-7rNshDC-45">
          <mxGeometry x="-0.1863" y="-3" relative="1" as="geometry">
            <mxPoint as="offset" />
          </mxGeometry>
        </mxCell>
        <mxCell id="o7lLUa4CT0-H-7rNshDC-47" value="+Freak (Praise immense power)" style="edgeLabel;html=1;align=center;verticalAlign=middle;resizable=0;points=[];" vertex="1" connectable="0" parent="o7lLUa4CT0-H-7rNshDC-45">
          <mxGeometry x="-0.1743" y="-2" relative="1" as="geometry">
            <mxPoint as="offset" />
          </mxGeometry>
        </mxCell>
        <mxCell id="o7lLUa4CT0-H-7rNshDC-5" value="&lt;div&gt;The Hammer&lt;/div&gt;&lt;div&gt;Red Heart&lt;/div&gt;&lt;div&gt;&lt;b&gt;Drive: &lt;/b&gt;Gloriously save the city&lt;br&gt;&lt;/div&gt;" style="rounded=0;whiteSpace=wrap;html=1;" vertex="1" parent="1">
          <mxGeometry x="20" y="170" width="120" height="60" as="geometry" />
        </mxCell>
        <mxCell id="o7lLUa4CT0-H-7rNshDC-17" style="edgeStyle=none;rounded=0;orthogonalLoop=1;jettySize=auto;html=1;exitX=0;exitY=0.5;exitDx=0;exitDy=0;entryX=1;entryY=0.5;entryDx=0;entryDy=0;endArrow=none;endFill=0;" edge="1" parent="1" source="o7lLUa4CT0-H-7rNshDC-7" target="o7lLUa4CT0-H-7rNshDC-2">
          <mxGeometry relative="1" as="geometry" />
        </mxCell>
        <mxCell id="o7lLUa4CT0-H-7rNshDC-20" value="Aunt" style="edgeLabel;html=1;align=center;verticalAlign=middle;resizable=0;points=[];" vertex="1" connectable="0" parent="o7lLUa4CT0-H-7rNshDC-17">
          <mxGeometry x="-0.24" y="4" relative="1" as="geometry">
            <mxPoint x="-14" y="-2" as="offset" />
          </mxGeometry>
        </mxCell>
        <mxCell id="o7lLUa4CT0-H-7rNshDC-7" value="&lt;div&gt;Jasmeen Thethi&lt;/div&gt;&lt;div&gt;&lt;b&gt;Drive: &lt;/b&gt;Show that powers don&#39;t define you&lt;br&gt;&lt;/div&gt;" style="rounded=0;whiteSpace=wrap;html=1;" vertex="1" parent="1">
          <mxGeometry x="605" y="160" width="115" height="60" as="geometry" />
        </mxCell>
        <mxCell id="o7lLUa4CT0-H-7rNshDC-18" style="edgeStyle=none;rounded=0;orthogonalLoop=1;jettySize=auto;html=1;exitX=1;exitY=0.75;exitDx=0;exitDy=0;entryX=0;entryY=0.75;entryDx=0;entryDy=0;endArrow=none;endFill=0;" edge="1" parent="1" source="o7lLUa4CT0-H-7rNshDC-8" target="o7lLUa4CT0-H-7rNshDC-3">
          <mxGeometry relative="1" as="geometry" />
        </mxCell>
        <mxCell id="o7lLUa4CT0-H-7rNshDC-25" value="Friend" style="edgeLabel;html=1;align=center;verticalAlign=middle;resizable=0;points=[];" vertex="1" connectable="0" parent="o7lLUa4CT0-H-7rNshDC-18">
          <mxGeometry x="-0.3271" y="1" relative="1" as="geometry">
            <mxPoint x="16" y="-5" as="offset" />
          </mxGeometry>
        </mxCell>
        <mxCell id="o7lLUa4CT0-H-7rNshDC-8" value="&lt;div&gt;Arlo Mavris&lt;/div&gt;&lt;div&gt;&lt;b&gt;Drive: &lt;/b&gt;Get close to Charlie&lt;br&gt;&lt;/div&gt;" style="rounded=0;whiteSpace=wrap;html=1;" vertex="1" parent="1">
          <mxGeometry x="20" y="470" width="120" height="60" as="geometry" />
        </mxCell>
        <mxCell id="o7lLUa4CT0-H-7rNshDC-26" style="edgeStyle=none;rounded=0;orthogonalLoop=1;jettySize=auto;html=1;exitX=0;exitY=0.5;exitDx=0;exitDy=0;entryX=1;entryY=0.75;entryDx=0;entryDy=0;endArrow=none;endFill=0;" edge="1" parent="1" source="o7lLUa4CT0-H-7rNshDC-9" target="o7lLUa4CT0-H-7rNshDC-1">
          <mxGeometry relative="1" as="geometry" />
        </mxCell>
        <mxCell id="o7lLUa4CT0-H-7rNshDC-28" value="Science co-ordinator" style="edgeLabel;html=1;align=center;verticalAlign=middle;resizable=0;points=[];" vertex="1" connectable="0" parent="o7lLUa4CT0-H-7rNshDC-26">
          <mxGeometry x="0.266" y="2" relative="1" as="geometry">
            <mxPoint x="24" y="1" as="offset" />
          </mxGeometry>
        </mxCell>
        <mxCell id="o7lLUa4CT0-H-7rNshDC-27" style="edgeStyle=none;rounded=0;orthogonalLoop=1;jettySize=auto;html=1;exitX=0;exitY=0.5;exitDx=0;exitDy=0;entryX=1;entryY=0.75;entryDx=0;entryDy=0;endArrow=none;endFill=0;" edge="1" parent="1" source="o7lLUa4CT0-H-7rNshDC-9" target="o7lLUa4CT0-H-7rNshDC-2">
          <mxGeometry relative="1" as="geometry" />
        </mxCell>
        <mxCell id="o7lLUa4CT0-H-7rNshDC-9" value="&lt;div&gt;Mrs Jeffries&lt;/div&gt;&lt;div&gt;&lt;b&gt;Drive: &lt;/b&gt;To improve the school&#39;s ratings&lt;br&gt;&lt;/div&gt;" style="rounded=0;whiteSpace=wrap;html=1;" vertex="1" parent="1">
          <mxGeometry x="600" y="320" width="120" height="60" as="geometry" />
        </mxCell>
        <mxCell id="o7lLUa4CT0-H-7rNshDC-39" style="edgeStyle=none;rounded=0;orthogonalLoop=1;jettySize=auto;html=1;entryX=1;entryY=0.5;entryDx=0;entryDy=0;endArrow=none;endFill=0;strokeColor=#009900;strokeWidth=3;" edge="1" parent="1">
          <mxGeometry relative="1" as="geometry">
            <mxPoint x="600" y="410" as="sourcePoint" />
            <mxPoint x="420" y="455.0000000000001" as="targetPoint" />
            <Array as="points">
              <mxPoint x="520" y="430" />
            </Array>
          </mxGeometry>
        </mxCell>
        <mxCell id="o7lLUa4CT0-H-7rNshDC-51" value="+Mundane: Ask for empathy/mercy" style="edgeLabel;html=1;align=center;verticalAlign=middle;resizable=0;points=[];" vertex="1" connectable="0" parent="o7lLUa4CT0-H-7rNshDC-39">
          <mxGeometry x="0.1952" y="-1" relative="1" as="geometry">
            <mxPoint as="offset" />
          </mxGeometry>
        </mxCell>
        <mxCell id="o7lLUa4CT0-H-7rNshDC-10" value="&lt;div&gt;Lure&lt;/div&gt;&lt;div&gt;&lt;b&gt;Drive: &lt;/b&gt;Sign up more to devil&#39;s bargains&lt;br&gt;&lt;/div&gt;" style="rounded=0;whiteSpace=wrap;html=1;" vertex="1" parent="1">
          <mxGeometry x="660" y="470" width="120" height="60" as="geometry" />
        </mxCell>
      </root>
    </mxGraphModel>
  </diagram>
</mxfile>
